<?xml version="1.0" encoding="UTF-8"?>
<svg version="1.1" xmlns="http://www.w3.org/2000/svg" width="500" height="500">
<path d="M0 0 C3.09051131 1.22921035 4.49551049 2.93545323 6.62109375 5.48071289 C10.66043015 10.18543083 14.88221163 14.58016212 19.30859375 18.91821289 C24.30859375 23.91821289 24.30859375 23.91821289 26.26171875 26.04711914 C26.9990625 26.82958008 27.73640625 27.61204102 28.49609375 28.41821289 C29.17027344 29.15040039 29.84445312 29.88258789 30.5390625 30.63696289 C33.07854862 32.72872579 35.06724329 33.79605616 38.0234375 35.13696289 C44.02296234 38.00989661 48.1345134 42.14439092 52.68359375 46.91821289 C53.85341797 48.10930664 53.85341797 48.10930664 55.046875 49.32446289 C58.67715389 53.04782585 62.13140114 56.79478616 65.30859375 60.91821289 C66.95403155 62.6058414 68.62147952 64.27224779 70.30859375 65.91821289 C71.51515625 67.15571289 71.51515625 67.15571289 72.74609375 68.41821289 C75.30664425 70.99184404 75.30664425 70.99184404 78.30859375 73.35571289 C81.42905404 76.02110606 83.77201496 78.71018678 86.30859375 81.91821289 C85.30859375 82.91821289 85.30859375 82.91821289 82.40565395 83.04126072 C80.43808683 83.03987803 80.43808683 83.03987803 78.43077087 83.03846741 C77.33918076 83.03974904 77.33918076 83.03974904 76.22553831 83.04105657 C73.76874262 83.04271353 71.31201409 83.03718651 68.85522461 83.03173828 C67.10140484 83.03145643 65.34758496 83.0316141 63.59376526 83.03218079 C58.81710706 83.03246884 54.04047375 83.02657084 49.26382136 83.01960683 C44.27765321 83.0133746 39.29148455 83.0127696 34.30531311 83.01158142 C24.85636081 83.00846772 15.40742001 83.0002538 5.95847279 82.99023193 C-4.79587869 82.97907201 -15.55023071 82.97356065 -26.30458653 82.9685365 C-48.43353287 82.95807122 -70.56246884 82.94047102 -92.69140625 82.91821289 C-92.69140625 82.25821289 -92.69140625 81.59821289 -92.69140625 80.91821289 C-91.3984375 79.64868164 -91.3984375 79.64868164 -89.50390625 78.10571289 C-84.73550366 74.08210568 -80.41342007 69.67221685 -76.08520508 65.18652344 C-74.65658489 63.72762955 -73.17775633 62.31824519 -71.69140625 60.91821289 C-71.03140625 60.91821289 -70.37140625 60.91821289 -69.69140625 60.91821289 C-69.42714844 60.32524414 -69.16289062 59.73227539 -68.890625 59.12133789 C-67.647702 56.83792235 -66.38738979 55.44394566 -64.50390625 53.66821289 C-62.03758408 51.2776998 -59.72550796 48.84980707 -57.50390625 46.23071289 C-56.2398265 44.78727048 -54.96790974 43.35068015 -53.69140625 41.91821289 C-53.24603516 41.41467285 -52.80066406 40.91113281 -52.34179688 40.39233398 C-50.8355593 38.71149622 -49.29869951 37.06362209 -47.75390625 35.41821289 C-47.27606689 34.87720947 -46.79822754 34.33620605 -46.3059082 33.77880859 C-44.8515625 32.26196289 -44.8515625 32.26196289 -41.69140625 29.91821289 C-39.70847545 29.96613871 -37.72466548 30.01752256 -35.74511719 30.14282227 C-31.35707716 29.66291299 -28.61510176 25.94744543 -25.69140625 22.91821289 C-24.35263428 21.55696289 -24.35263428 21.55696289 -22.98681641 20.16821289 C-19.45541437 16.56110446 -15.92846863 12.94870056 -12.45581055 9.28491211 C-10.9607133 7.71135011 -9.44738975 6.15744123 -7.9296875 4.60571289 C-7.04321533 3.68145508 -6.15674316 2.75719727 -5.2434082 1.80493164 C-2.69140625 -0.08178711 -2.69140625 -0.08178711 0 0 Z M-2.69140625 8.91821289 C-4.06703479 10.20786465 -5.39907018 11.54510582 -6.69140625 12.91821289 C-6.69140625 13.57821289 -6.69140625 14.23821289 -6.69140625 14.91821289 C-7.35140625 14.91821289 -8.01140625 14.91821289 -8.69140625 14.91821289 C-8.69140625 15.57821289 -8.69140625 16.23821289 -8.69140625 16.91821289 C-9.35140625 16.91821289 -10.01140625 16.91821289 -10.69140625 16.91821289 C-12.15782379 18.36825532 -12.15782379 18.36825532 -13.69140625 20.29321289 C-26.70751412 35.3886575 -26.70751412 35.3886575 -32.62890625 35.91821289 C-33.33917969 35.89758789 -34.04945313 35.87696289 -34.78125 35.85571289 C-37.02697728 35.76117604 -37.02697728 35.76117604 -39.69140625 37.91821289 C-39.69140625 38.57821289 -39.69140625 39.23821289 -39.69140625 39.91821289 C-40.2733374 40.17038574 -40.85526855 40.42255859 -41.45483398 40.68237305 C-43.964059 42.06886983 -45.52448004 43.59708562 -47.4765625 45.69165039 C-48.17201172 46.43415039 -48.86746094 47.17665039 -49.58398438 47.94165039 C-50.6580957 49.10567383 -50.6580957 49.10567383 -51.75390625 50.29321289 C-52.47384766 51.06149414 -53.19378906 51.82977539 -53.93554688 52.62133789 C-57.03587089 55.94907657 -60.01246708 59.23692156 -62.69140625 62.91821289 C-58.32778652 62.91821289 -56.6194326 62.09431827 -52.81640625 60.10571289 C-51.30433594 59.32260742 -51.30433594 59.32260742 -49.76171875 58.52368164 C-48.74851562 57.99387695 -47.7353125 57.46407227 -46.69140625 56.91821289 C-44.69325552 55.91452286 -42.69379144 54.91342822 -40.69140625 53.91821289 C-41.02140625 55.23821289 -41.35140625 56.55821289 -41.69140625 57.91821289 C-38.27946233 55.04907823 -34.92004899 52.14665761 -31.66015625 49.10571289 C-31.1300293 48.61240479 -30.59990234 48.11909668 -30.05371094 47.61083984 C-28.98806422 46.61603185 -27.92613319 45.617227 -26.86816406 44.61425781 C-24.47668568 42.38456504 -22.83404146 40.96575796 -19.69140625 39.91821289 C-23.28047508 48.28056107 -23.28047508 48.28056107 -25.50390625 51.73071289 C-26.93251123 53.84891342 -26.93251123 53.84891342 -26.37890625 56.23071289 C-26.15203125 56.78758789 -25.92515625 57.34446289 -25.69140625 57.91821289 C-27.67140625 58.41321289 -27.67140625 58.41321289 -29.69140625 58.91821289 C-29.03140625 59.57821289 -28.37140625 60.23821289 -27.69140625 60.91821289 C-20.06107317 56.69536508 -14.04046467 52.79607001 -8.31640625 46.16821289 C-5.10296442 43.41383418 -2.85303168 43.16301439 1.30859375 42.91821289 C-0.36657864 39.38173785 -1.18421442 38.12705659 -4.87890625 36.60571289 C-5.80703125 36.37883789 -6.73515625 36.15196289 -7.69140625 35.91821289 C-7.50964844 35.2027832 -7.32789063 34.48735352 -7.140625 33.75024414 C-6.31446405 30.4752574 -5.50118888 27.19728784 -4.69140625 23.91821289 C-4.24474609 22.12577148 -4.24474609 22.12577148 -3.7890625 20.29711914 C-3.50933594 19.14083008 -3.22960937 17.98454102 -2.94140625 16.79321289 C-2.6784375 15.71813477 -2.41546875 14.64305664 -2.14453125 13.53540039 C-1.42985298 10.94694951 -1.42985298 10.94694951 -2.69140625 8.91821289 Z M23.30859375 45.91821289 C24.62083923 49.85494933 26.22769702 52.14540584 29.30859375 54.91821289 C29.96859375 54.58821289 30.62859375 54.25821289 31.30859375 53.91821289 C30.16619558 52.58193514 29.0195832 51.24925902 27.87109375 49.91821289 C27.23300781 49.17571289 26.59492188 48.43321289 25.9375 47.66821289 C25.39996094 47.09071289 24.86242187 46.51321289 24.30859375 45.91821289 C23.97859375 45.91821289 23.64859375 45.91821289 23.30859375 45.91821289 Z M-64.69140625 63.91821289 C-65.68140625 65.40321289 -65.68140625 65.40321289 -66.69140625 66.91821289 C-65.04140625 66.25821289 -63.39140625 65.59821289 -61.69140625 64.91821289 C-62.68140625 64.58821289 -63.67140625 64.25821289 -64.69140625 63.91821289 Z " fill="#022846" transform="translate(252.69140625,206.081787109375)"/>
<path d="M0 0 C4.53556635 2.95797805 7.40405483 5.91876621 8.6875 11.25 C8.749375 12.11625 8.81125 12.9825 8.875 13.875 C11.515 13.875 14.155 13.875 16.875 13.875 C18.6161344 19.30153553 19.37743143 24.45919352 19.875 30.125 C20.47343344 36.49782361 21.26038744 42.6927929 22.703125 48.94140625 C22.75984375 49.57949219 22.8165625 50.21757812 22.875 50.875 C22.215 51.535 21.555 52.195 20.875 52.875 C17.82600965 50.65755247 15.30097255 48.29905865 12.875 45.4375 C7.5852071 39.22876758 1.67724928 33.5987226 -4.125 27.875 C-5.0221875 28.3390625 -5.0221875 28.3390625 -5.9375 28.8125 C-8.125 29.875 -8.125 29.875 -11.125 30.875 C-11.125 31.535 -11.125 32.195 -11.125 32.875 C-12.453125 34.1796875 -12.453125 34.1796875 -14.375 35.75 C-18.28067138 39.06666528 -21.94021217 42.56846377 -25.5625 46.1875 C-26.09456055 46.71520996 -26.62662109 47.24291992 -27.17480469 47.78662109 C-29.9999138 50.56609061 -29.9999138 50.56609061 -32.125 53.875 C-32.785 53.875 -33.445 53.875 -34.125 53.875 C-34.41183503 46.67636607 -33.45051623 39.68052061 -32.47094727 32.56396484 C-32.18542704 30.48490539 -31.9095445 28.4047223 -31.63476562 26.32421875 C-30.26400886 16.15301773 -30.26400886 16.15301773 -29.125 13.875 C-26.485 13.875 -23.845 13.875 -21.125 13.875 C-21.08375 13.029375 -21.0425 12.18375 -21 11.3125 C-19.71009485 6.24501549 -16.65931076 2.38363686 -12.13671875 -0.30859375 C-7.94296765 -2.01052381 -4.17025079 -1.50129028 0 0 Z M-13.125 7.875 C-13.785 9.855 -14.445 11.835 -15.125 13.875 C-9.185 13.875 -3.245 13.875 2.875 13.875 C0.73597822 7.26172797 0.73597822 7.26172797 -2.0625 5.4375 C-6.71296847 4.16919042 -9.46546966 4.9858971 -13.125 7.875 Z " fill="#ED8413" transform="translate(257.125,176.125)"/>
<path d="M0 0 C0.16757812 0.68707031 0.33515625 1.37414062 0.5078125 2.08203125 C0.75144531 3.03142578 0.75144531 3.03142578 1 4 C1.99 4.33 2.98 4.66 4 5 C3.34 5 2.68 5 2 5 C2.13019531 5.59167969 2.26039063 6.18335938 2.39453125 6.79296875 C2.82728323 9.27219272 3.11787189 11.48259327 3 14 C0.5625 17.0625 0.5625 17.0625 -2 19 C-1.60404157 20.48484412 -1.18249294 21.9628831 -0.75 23.4375 C-0.51796875 24.26121094 -0.2859375 25.08492188 -0.046875 25.93359375 C0.29859375 26.61550781 0.6440625 27.29742187 1 28 C3.02606248 28.65706469 3.02606248 28.65706469 5 29 C4.99214478 27.65252686 4.99214478 27.65252686 4.98413086 26.27783203 C4.96710275 22.94937501 4.95455663 19.62096419 4.94506836 16.29248047 C4.94003526 14.8510668 4.93320827 13.40965824 4.92456055 11.96826172 C4.91245017 9.89809915 4.90676153 7.82800399 4.90234375 5.7578125 C4.89448853 3.88826904 4.89448853 3.88826904 4.88647461 1.98095703 C5 -1 5 -1 6 -3 C13.26 -3 20.52 -3 28 -3 C28 -0.03 28 2.94 28 6 C23.71 5.67 19.42 5.34 15 5 C15 6.65 15 8.3 15 10 C18.96 10 22.92 10 27 10 C27 12.31 27 14.62 27 17 C23.04 17 19.08 17 15 17 C15 18.98 15 20.96 15 23 C19.29 23 23.58 23 28 23 C28 25.64 28 28.28 28 31 C23.19451403 31.04936883 18.38917506 31.08570443 13.58349609 31.10986328 C11.94805328 31.11993254 10.31262851 31.13358881 8.67724609 31.15087891 C6.3290563 31.17508705 3.98110412 31.18647357 1.6328125 31.1953125 C0.89942657 31.20563507 0.16604065 31.21595764 -0.58956909 31.22659302 C-2.39462697 31.22699368 -4.1990783 31.12212755 -6 31 C-8.42755736 28.57244264 -9.57545191 26.10810492 -11 23 C-11 22.34 -11 21.68 -11 21 C-11.99 21 -12.98 21 -14 21 C-13.98839844 21.63808594 -13.97679687 22.27617187 -13.96484375 22.93359375 C-13.95582031 23.75988281 -13.94679688 24.58617187 -13.9375 25.4375 C-13.92589844 26.26121094 -13.91429687 27.08492188 -13.90234375 27.93359375 C-14 30 -14 30 -15 31 C-17.67058851 31.14115161 -20.32432238 31.04247107 -23 31 C-24.48125044 28.03749913 -24.12990684 25.36087105 -24.1328125 22.05859375 C-24.13376923 21.37571793 -24.13472595 20.6928421 -24.13571167 19.98927307 C-24.13639223 18.54598905 -24.1345466 17.10270197 -24.13037109 15.65942383 C-24.12501282 13.44280172 -24.13032443 11.22638148 -24.13671875 9.00976562 C-24.13605811 7.60937455 -24.13477723 6.2089836 -24.1328125 4.80859375 C-24.13168457 3.52782959 -24.13055664 2.24706543 -24.12939453 0.92749023 C-24 -2 -24 -2 -23 -3 C-14.56750312 -4.24413888 -7.15012901 -5.29109547 0 0 Z M-15 5 C-15 7.31 -15 9.62 -15 12 C-12.36 12 -9.72 12 -7 12 C-7.33 9.69 -7.66 7.38 -8 5 C-10.31 5 -12.62 5 -15 5 Z " fill="#052642" transform="translate(351,307)"/>
<path d="M0 0 C2.67691981 1.70349443 4.71290518 3.32115617 6.75 5.75 C6.75 6.41 6.75 7.07 6.75 7.75 C7.41 8.08 8.07 8.41 8.75 8.75 C10.67738858 15.24225627 9.36160743 20.70330533 6.75 26.75 C6.37875 27.69875 6.0075 28.6475 5.625 29.625 C2.61953999 33.03118802 -0.81265142 34.09564445 -5.25 34.75 C-11.17038873 34.46932972 -16.14317267 33.21919445 -20.25 28.75 C-24.62076435 22.96169046 -25.14046043 17.90707569 -24.25 10.75 C-22.44137324 5.96245856 -18.35106623 2.6953112 -14.25 -0.25 C-9.20222786 -1.93259071 -4.89935987 -1.88436918 0 0 Z M-9.25 6.75 C-9.91 8.07 -10.57 9.39 -11.25 10.75 C-11.91 10.75 -12.57 10.75 -13.25 10.75 C-15.65533071 12.73233513 -15.65533071 12.73233513 -15.625 16.5625 C-15.52496912 19.61344176 -15.1642047 20.9215906 -13.75 23.75 C-11.08643189 25.88085449 -10.3831492 26.08679357 -7.125 26.1875 C-3.24114614 26.15668747 -3.24114614 26.15668747 -1.25 23.75 C-1.25 22.76 -1.25 21.77 -1.25 20.75 C-0.59 20.75 0.07 20.75 0.75 20.75 C0.95837644 16.65193009 1.08579156 13.67836491 -0.3125 9.8125 C-3.03105237 6.91855715 -5.38820495 6.96859217 -9.25 6.75 Z " fill="#052540" transform="translate(315.25,304.25)"/>
<path d="M0 0 C2.97 0 5.94 0 9 0 C9 3.3 9 6.6 9 10 C9.66 10 10.32 10 11 10 C11 9.34 11 8.68 11 8 C11.66 8 12.32 8 13 8 C13.33 6.68 13.66 5.36 14 4 C14.66 4 15.32 4 16 4 C16 3.34 16 2.68 16 2 C16.66 2 17.32 2 18 2 C18 1.34 18 0.68 18 0 C21.3 0 24.6 0 28 0 C27.34 1.32 26.68 2.64 26 4 C25.690625 4.70125 25.38125 5.4025 25.0625 6.125 C24 8 24 8 21 10 C19.06201737 12.77260299 19.06201737 12.77260299 18 15 C19.62219341 17.46022691 21.24760555 19.91821719 22.875 22.375 C23.33519531 23.07367188 23.79539063 23.77234375 24.26953125 24.4921875 C24.71425781 25.1625 25.15898437 25.8328125 25.6171875 26.5234375 C26.02565918 27.14138184 26.43413086 27.75932617 26.85498047 28.39599609 C28.04163143 30.15142015 28.04163143 30.15142015 30 32 C29.67 32.99 29.34 33.98 29 35 C20.93244662 34.65523276 20.93244662 34.65523276 17.6875 32.375 C15.54120568 29.35428947 13.75743037 26.26379925 12 23 C11.34 23 10.68 23 10 23 C10 26.63 10 30.26 10 34 C7.2780754 35.3609623 5.8168043 34.70366248 2.875 34.0625 C1.96492187 33.86785156 1.05484375 33.67320312 0.1171875 33.47265625 C-0.93082031 33.23869141 -0.93082031 33.23869141 -2 33 C-1.01 32.505 -1.01 32.505 0 32 C0 21.44 0 10.88 0 0 Z " fill="#06243C" transform="translate(210,304)"/>
<path d="M0 0 C3.05589809 2.01411465 4.35238805 3.44178883 5.75 6.8125 C5.4375 9.125 5.4375 9.125 4.75 10.8125 C2.11 10.8125 -0.53 10.8125 -3.25 10.8125 C-3.58 9.8225 -3.91 8.8325 -4.25 7.8125 C-5.9 7.4825 -7.55 7.1525 -9.25 6.8125 C-9.25 8.1325 -9.25 9.4525 -9.25 10.8125 C-8.14591797 11.14121094 -8.14591797 11.14121094 -7.01953125 11.4765625 C-0.72816253 13.52104956 3.36665169 14.97914085 6.75 20.8125 C7.0625 24.1875 7.0625 24.1875 6.75 26.8125 C6.09 26.8125 5.43 26.8125 4.75 26.8125 C4.75 27.575625 4.75 28.33875 4.75 29.125 C3.75 31.8125 3.75 31.8125 2.11328125 32.8125 C-2.02354803 34.45147236 -5.78877406 35.47693791 -10.25 34.8125 C-12.74005965 33.64575806 -14.92330879 32.30158237 -17.25 30.8125 C-17.25 30.1525 -17.25 29.4925 -17.25 28.8125 C-18.24 29.1425 -19.23 29.4725 -20.25 29.8125 C-20.25 27.5025 -20.25 25.1925 -20.25 22.8125 C-19.115625 22.68875 -17.98125 22.565 -16.8125 22.4375 C-15.636875 22.23125 -14.46125 22.025 -13.25 21.8125 C-12.92 21.1525 -12.59 20.4925 -12.25 19.8125 C-11.59 21.4625 -10.93 23.1125 -10.25 24.8125 C-7.94 25.1425 -5.63 25.4725 -3.25 25.8125 C-3.25 25.1525 -3.25 24.4925 -3.25 23.8125 C-4.53646888 23.16926556 -5.8253589 22.53083895 -7.1171875 21.8984375 C-9.25174795 20.81161002 -11.31831169 19.6652569 -13.375 18.4375 C-14.39980469 17.83808594 -14.39980469 17.83808594 -15.4453125 17.2265625 C-17.55437483 15.57400717 -18.32483393 14.31422457 -19.25 11.8125 C-19.3277346 9.48046188 -19.33967728 7.14410941 -19.25 4.8125 C-18.59 4.8125 -17.93 4.8125 -17.25 4.8125 C-17.023125 4.19375 -16.79625 3.575 -16.5625 2.9375 C-13.05295939 -2.74461338 -5.57193654 -2.03589989 0 0 Z " fill="#062641" transform="translate(259.25,304.1875)"/>
<path d="M0 0 C1.670625 0.061875 1.670625 0.061875 3.375 0.125 C5.86478634 4.84700859 7.9196611 9.40283595 9.515625 14.4921875 C10.99046632 19.010565 12.71152623 23.44321122 14.38671875 27.890625 C15.29661773 30.86847621 15.58920109 33.0451357 15.375 36.125 C10.00194301 35.9488342 10.00194301 35.9488342 7.375 35.125 C5.375 32.0625 5.375 32.0625 4.375 29.125 C1.075 29.125 -2.225 29.125 -5.625 29.125 C-6.615 32.59 -6.615 32.59 -7.625 36.125 C-10.595 35.795 -13.565 35.465 -16.625 35.125 C-16.625 33.475 -16.625 31.825 -16.625 30.125 C-15.965 30.125 -15.305 30.125 -14.625 30.125 C-14.625 28.475 -14.625 26.825 -14.625 25.125 C-13.965 25.125 -13.305 25.125 -12.625 25.125 C-12.955 24.135 -13.285 23.145 -13.625 22.125 C-12.8828125 20.22265625 -12.8828125 20.22265625 -11.75 18.1875 C-10.26146655 15.48628021 -9.30989751 13.12801217 -8.625 10.125 C-8.168456 8.74232387 -7.68907445 7.36698528 -7.1875 6 C-6.94128906 5.31679688 -6.69507813 4.63359375 -6.44140625 3.9296875 C-4.83598841 0.38086911 -3.93213407 0.13559083 0 0 Z M-0.625 13.125 C0.375 15.125 0.375 15.125 0.375 15.125 Z M-1.625 15.125 C-1.955 17.105 -2.285 19.085 -2.625 21.125 C-1.305 20.795 0.015 20.465 1.375 20.125 C1.375 18.805 1.375 17.485 1.375 16.125 C0.385 15.795 -0.605 15.465 -1.625 15.125 Z " fill="#09233A" transform="translate(191.625,302.875)"/>
<path d="M0 0 C0.87454834 0.00523682 1.74909668 0.01047363 2.65014648 0.01586914 C3.59438477 0.0190918 4.53862305 0.02231445 5.51147461 0.02563477 C6.50469727 0.03401367 7.49791992 0.04239258 8.52124023 0.05102539 C9.51833008 0.05553711 10.51541992 0.06004883 11.54272461 0.06469727 C14.01478872 0.07652532 16.48673541 0.0930069 18.95874023 0.11352539 C18.95874023 3.08352539 18.95874023 6.05352539 18.95874023 9.11352539 C17.16715534 9.14048904 15.3754555 9.15990456 13.58374023 9.17602539 C12.58600586 9.18762695 11.58827148 9.19922852 10.56030273 9.21118164 C7.95874023 9.11352539 7.95874023 9.11352539 5.95874023 8.11352539 C5.95874023 9.76352539 5.95874023 11.41352539 5.95874023 13.11352539 C9.91874023 13.11352539 13.87874023 13.11352539 17.95874023 13.11352539 C17.95874023 15.42352539 17.95874023 17.73352539 17.95874023 20.11352539 C13.99874023 20.11352539 10.03874023 20.11352539 5.95874023 20.11352539 C5.95874023 22.09352539 5.95874023 24.07352539 5.95874023 26.11352539 C6.80178711 26.02973633 7.64483398 25.94594727 8.51342773 25.85961914 C9.60913086 25.7577832 10.70483398 25.65594727 11.83374023 25.55102539 C12.92428711 25.44661133 14.01483398 25.34219727 15.13842773 25.23461914 C17.95874023 25.11352539 17.95874023 25.11352539 19.95874023 26.11352539 C19.95874023 28.75352539 19.95874023 31.39352539 19.95874023 34.11352539 C12.69874023 34.11352539 5.43874023 34.11352539 -2.04125977 34.11352539 C-2.20672231 29.43220816 -2.36910748 24.75100252 -2.5234375 20.06933594 C-2.57692771 18.47552283 -2.63226232 16.88177054 -2.68945312 15.28808594 C-2.77116919 13.00216797 -2.84632873 10.71611593 -2.92016602 8.42993164 C-2.94720108 7.71325821 -2.97423615 6.99658478 -3.00209045 6.25819397 C-3.05423621 4.54404772 -3.05311605 2.82842363 -3.04125977 1.11352539 C-2.04125977 0.11352539 -2.04125977 0.11352539 0 0 Z " fill="#072843" transform="translate(153.041259765625,303.886474609375)"/>
<path d="M0 0 C2.4708186 3.12970356 3.71578247 6.02095457 4 10 C2.40974212 17.68624642 2.40974212 17.68624642 -1 20 C-5.44089077 21.91765738 -9.19159934 22.19233603 -14 22 C-14 25.3 -14 28.6 -14 32 C-16.64 32 -19.28 32 -22 32 C-22 20.78 -22 9.56 -22 -2 C-4.63157895 -3.15789474 -4.63157895 -3.15789474 0 0 Z M-14 6 C-14 8.64 -14 11.28 -14 14 C-9.2102679 14.23428313 -9.2102679 14.23428313 -5 12 C-5.33 10.35 -5.66 8.7 -6 7 C-8.76264289 6.40267181 -11.16032769 6 -14 6 Z " fill="#052844" transform="translate(144,306)"/>
<path d="M0 0 C0 2.97 0 5.94 0 9 C-2.64 9 -5.28 9 -8 9 C-8 17.58 -8 26.16 -8 35 C-10.64 35 -13.28 35 -16 35 C-17 34 -17 34 -17.11352539 31.59155273 C-17.10828857 30.54942627 -17.10305176 29.5072998 -17.09765625 28.43359375 C-17.09443359 27.30888672 -17.09121094 26.18417969 -17.08789062 25.02539062 C-17.07951172 23.84138672 -17.07113281 22.65738281 -17.0625 21.4375 C-17.05798828 20.24962891 -17.05347656 19.06175781 -17.04882812 17.83789062 C-17.03699675 14.89187774 -17.02051287 11.94596319 -17 9 C-19.64 9 -22.28 9 -25 9 C-26.35439668 6.29120665 -26.06501451 3.99066732 -26 1 C-22.04169483 0.83265991 -18.08335144 0.66624177 -14.125 0.5 C-12.43310547 0.42845703 -12.43310547 0.42845703 -10.70703125 0.35546875 C-9.63066406 0.31035156 -8.55429687 0.26523437 -7.4453125 0.21875 C-5.95281982 0.1559082 -5.95281982 0.1559082 -4.43017578 0.09179688 C-2.95418617 0.0360432 -1.47704224 0 0 0 Z " fill="#052743" transform="translate(291,303)"/>
<path d="M0 0 C4.53556635 2.95797805 7.40405483 5.91876621 8.6875 11.25 C8.749375 12.11625 8.81125 12.9825 8.875 13.875 C11.515 13.875 14.155 13.875 16.875 13.875 C18.6161344 19.30153553 19.37743143 24.45919352 19.875 30.125 C20.47343344 36.49782361 21.26038744 42.6927929 22.703125 48.94140625 C22.75984375 49.57949219 22.8165625 50.21757812 22.875 50.875 C22.215 51.535 21.555 52.195 20.875 52.875 C16.94969503 50.02023275 13.98090027 46.77686654 10.85546875 43.11328125 C7.38094467 39.18645226 3.61915068 35.54273944 -0.125 31.875 C0.865 31.38 0.865 31.38 1.875 30.875 C2.865 31.535 3.855 32.195 4.875 32.875 C4.875 33.535 4.875 34.195 4.875 34.875 C7.845 35.37 7.845 35.37 10.875 35.875 C11.37 38.845 11.37 38.845 11.875 41.875 C13.525 41.875 15.175 41.875 16.875 41.875 C16.875 39.235 16.875 36.595 16.875 33.875 C15.885 34.37 15.885 34.37 14.875 34.875 C15.75 31 15.75 31 16.875 29.875 C17.05265417 24.72302914 16.72134488 19.95306929 15.875 14.875 C14.95847656 15.00068359 14.95847656 15.00068359 14.0234375 15.12890625 C5.0046279 16.1324076 -3.81596194 15.63271326 -12.85546875 15.12890625 C-17.61989838 14.87068344 -22.35416398 14.83114145 -27.125 14.875 C-27.125 14.545 -27.125 14.215 -27.125 13.875 C-25.145 13.875 -23.165 13.875 -21.125 13.875 C-21.08375 13.029375 -21.0425 12.18375 -21 11.3125 C-19.71009485 6.24501549 -16.65931076 2.38363686 -12.13671875 -0.30859375 C-7.94296765 -2.01052381 -4.17025079 -1.50129028 0 0 Z M-13.125 7.875 C-13.785 9.855 -14.445 11.835 -15.125 13.875 C-9.185 13.875 -3.245 13.875 2.875 13.875 C0.73597822 7.26172797 0.73597822 7.26172797 -2.0625 5.4375 C-6.71296847 4.16919042 -9.46546966 4.9858971 -13.125 7.875 Z " fill="#DE872D" transform="translate(257.125,176.125)"/>
<path d="M0 0 C1.98 1.485 1.98 1.485 4 3 C3 4 3 4 0.0970602 4.12304783 C-1.87050692 4.12166514 -1.87050692 4.12166514 -3.87782288 4.12025452 C-4.96941299 4.12153615 -4.96941299 4.12153615 -6.08305544 4.12284368 C-8.53985113 4.12450064 -10.99657966 4.11897362 -13.45336914 4.11352539 C-15.20718891 4.11324354 -16.96100879 4.11340121 -18.71482849 4.1139679 C-23.49148669 4.11425595 -28.26812 4.10835795 -33.04477239 4.10139394 C-38.03094054 4.09516171 -43.0171092 4.09455671 -48.00328064 4.09336853 C-57.45223294 4.09025482 -66.90117374 4.08204091 -76.35012096 4.07201904 C-87.10447244 4.06085912 -97.85882446 4.05534776 -108.61318028 4.05032361 C-130.74212662 4.03985833 -152.87106259 4.02225813 -175 4 C-175 3.34 -175 2.68 -175 2 C-170.55768907 1.1392387 -166.3843201 0.88747483 -161.86257935 0.91770935 C-161.16733245 0.92093848 -160.47208555 0.92416761 -159.75577056 0.92749459 C-157.43884796 0.93950601 -155.12204757 0.9588916 -152.80517578 0.97827148 C-151.13928996 0.98842103 -149.47340131 0.99811397 -147.80751038 1.00738525 C-143.29350767 1.03379853 -138.77957127 1.06659172 -134.26561975 1.10053515 C-129.54509438 1.13494537 -124.82453358 1.1634815 -120.10397339 1.19264221 C-111.16869378 1.24873067 -102.23345855 1.31009764 -93.29822719 1.37336355 C-83.12418428 1.44514368 -72.95010591 1.51103549 -62.77602029 1.57643402 C-41.85063411 1.71107324 -20.92530348 1.85310277 0 2 C0 1.34 0 0.68 0 0 Z " fill="#082236" transform="translate(335,285)"/>
<path d="M0 0 C1.99954746 -0.04254356 4.00041636 -0.04080783 6 0 C7.87824891 1.87824891 7.39102397 5.03935276 7.5625 7.5625 C7.64628906 8.76003906 7.73007813 9.95757812 7.81640625 11.19140625 C7.87699219 12.11824219 7.93757812 13.04507812 8 14 C8.99 14.33 9.98 14.66 11 15 C10.69320312 15.53109375 10.38640625 16.0621875 10.0703125 16.609375 C8.78447087 19.48140083 8.34791005 22.14230539 7.875 25.25 C7.70742187 26.32765625 7.53984375 27.4053125 7.3671875 28.515625 C7.24601563 29.33546875 7.12484375 30.1553125 7 31 C5.02 31 3.04 31 1 31 C0.34956362 20.6510926 -0.16494885 10.3734499 0 0 Z " fill="#032747" transform="translate(210,305)"/>
<path d="M0 0 C1.65 0.33 3.3 0.66 5 1 C5.33 2.65 5.66 4.3 6 6 C6.66 6 7.32 6 8 6 C8 6.66 8 7.32 8 8 C6.88625 8.433125 5.7725 8.86625 4.625 9.3125 C0.82487666 10.69911119 0.82487666 10.69911119 -1 14 C-0.67449498 15.66821323 -0.34153937 17.33499557 0 19 C-0.66 19.66 -1.32 20.32 -2 21 C-2.0825 21.598125 -2.165 22.19625 -2.25 22.8125 C-3.44844835 26.30797436 -6.10313223 27.78112256 -9 30 C-9.66 29.34 -10.32 28.68 -11 28 C-9.02 23.545 -9.02 23.545 -7 19 C-7.66 18.34 -8.32 17.68 -9 17 C-8.01 16.67 -7.02 16.34 -6 16 C-5.07793993 13.8717813 -5.07793993 13.8717813 -4.5 11.3125 C-3.39883838 7.2516024 -2.04553645 3.70144692 0 0 Z " fill="#032A48" transform="translate(189,305)"/>
<path d="M0 0 C0.66 0.33 1.32 0.66 2 1 C2.83674268 3.75563315 3.54624171 6.44883561 4.1875 9.25 C4.37763672 10.01441406 4.56777344 10.77882812 4.76367188 11.56640625 C5.72903292 15.69145457 6.30501946 18.84388708 5 23 C0.41365594 20.3153108 -2.64657499 17.29592193 -6.0546875 13.23828125 C-9.48947549 9.28620591 -13.26142586 5.6622767 -17 2 C-16.34 1.67 -15.68 1.34 -15 1 C-14.01 1.66 -13.02 2.32 -12 3 C-12 3.66 -12 4.32 -12 5 C-9.03 5.495 -9.03 5.495 -6 6 C-5.67 7.98 -5.34 9.96 -5 12 C-3.35 12 -1.7 12 0 12 C0 9.36 0 6.72 0 4 C-0.99 4.495 -0.99 4.495 -2 5 C-1.125 1.125 -1.125 1.125 0 0 Z " fill="#EA8616" transform="translate(274,206)"/>
<path d="M0 0 C3.40506656 2.27004437 3.77154825 3.22689818 5 7 C5.165 7.9075 5.33 8.815 5.5 9.75 C5.665 10.4925 5.83 11.235 6 12 C6.66 12.33 7.32 12.66 8 13 C8 14.65 8 16.3 8 18 C6.35 18 4.7 18 3 18 C2.38125 16.3603125 2.38125 16.3603125 1.75 14.6875 C0.39714409 11.48984058 -0.94055844 9.79346574 -4 8 C-3.40138258 5.64828869 -2.73075648 3.3140622 -2 1 C-1.34 0.67 -0.68 0.34 0 0 Z " fill="#042947" transform="translate(197,318)"/>
<path d="M0 0 C0.66 0.33 1.32 0.66 2 1 C1.34 3.31 0.68 5.62 0 8 C-0.66 8 -1.32 8 -2 8 C-2.33 9.65 -2.66 11.3 -3 13 C-3.99 13.33 -4.98 13.66 -6 14 C-6.33 13.01 -6.66 12.02 -7 11 C-7.99 11.495 -7.99 11.495 -9 12 C-9.66 11.67 -10.32 11.34 -11 11 C-11 11.99 -11 12.98 -11 14 C-11.66 14 -12.32 14 -13 14 C-13 14.66 -13 15.32 -13 16 C-13.639375 16.12375 -14.27875 16.2475 -14.9375 16.375 C-15.618125 16.58125 -16.29875 16.7875 -17 17 C-17.33 17.66 -17.66 18.32 -18 19 C-16.97500703 11.80877949 -8.90437657 6.5474197 -3.4375 2.4375 C-2.2971849 1.61727335 -1.15354698 0.80151085 0 0 Z " fill="#0A2338" transform="translate(232,245)"/>
<path d="M0 0 C0.66 0 1.32 0 2 0 C2 0.99 2 1.98 2 3 C3.11375 2.814375 3.11375 2.814375 4.25 2.625 C7 3 7 3 9.375 5.6875 C11 9 11 9 10.875 11.8125 C10 14 10 14 8 15 C7.67 14.67 7.34 14.34 7 14 C6.67 14.66 6.34 15.32 6 16 C3.03 15.505 3.03 15.505 0 15 C0 15.66 0 16.32 0 17 C-1.65 17.33 -3.3 17.66 -5 18 C-1.48417174 13.33716394 1.03648545 10.27789598 7 9 C6.42055068 7.00136244 6.42055068 7.00136244 5 5 C1.95800528 3.70768358 1.95800528 3.70768358 -1 3 C-0.67 2.01 -0.34 1.02 0 0 Z " fill="#08263E" transform="translate(245,239)"/>
<path d="M0 0 C7.26 0 14.52 0 22 0 C22 2.97 22 5.94 22 9 C19.69 9 17.38 9 15 9 C14.67 8.34 14.34 7.68 14 7 C15.65 6.67 17.3 6.34 19 6 C19.33 4.68 19.66 3.36 20 2 C14.06 2.33 8.12 2.66 2 3 C2 5.31 2 7.62 2 10 C1.01 9.67 0.02 9.34 -1 9 C-1.125 2.25 -1.125 2.25 0 0 Z " fill="#081F34" transform="translate(357,304)"/>
<path d="M0 0 C1.32 0.33 2.64 0.66 4 1 C3.67 8.59 3.34 16.18 3 24 C4.98 24.33 6.96 24.66 9 25 C9 25.33 9 25.66 9 26 C2.84765625 26.09765625 2.84765625 26.09765625 1 26 C0 25 0 25 -0.11352539 22.59155273 C-0.10828857 21.54942627 -0.10305176 20.5072998 -0.09765625 19.43359375 C-0.09443359 18.30888672 -0.09121094 17.18417969 -0.08789062 16.02539062 C-0.07951172 14.84138672 -0.07113281 13.65738281 -0.0625 12.4375 C-0.05798828 11.24962891 -0.05347656 10.06175781 -0.04882812 8.83789062 C-0.03699675 5.89187774 -0.02051287 2.94596319 0 0 Z " fill="#041A2E" transform="translate(274,312)"/>
<path d="M0 0 C2.423064 1.59013575 3.6952599 2.7030198 5 5.3125 C4.375 8.4375 4.375 8.4375 3 11.3125 C2.01 11.9725 1.02 12.6325 0 13.3125 C-0.66 12.9825 -1.32 12.6525 -2 12.3125 C-2 10.9925 -2 9.6725 -2 8.3125 C-2.495 7.6525 -2.99 6.9925 -3.5 6.3125 C-5 4.3125 -5 4.3125 -5 0.3125 C-2 -0.6875 -2 -0.6875 0 0 Z " fill="#042946" transform="translate(260,320.6875)"/>
<path d="M0 0 C0.66 0.33 1.32 0.66 2 1 C1.28082397 1.7113208 1.28082397 1.7113208 0.54711914 2.43701172 C-1.61701838 4.58040335 -3.77729647 6.7276439 -5.9375 8.875 C-6.69224609 9.62136719 -7.44699219 10.36773437 -8.22460938 11.13671875 C-8.94326172 11.85214844 -9.66191406 12.56757813 -10.40234375 13.3046875 C-11.06741943 13.96452637 -11.73249512 14.62436523 -12.41772461 15.30419922 C-14.0813711 16.92673932 -14.0813711 16.92673932 -15 19 C-15.66 19 -16.32 19 -17 19 C-17.08333357 14.1666528 -16.95261487 9.76307437 -16 5 C-15.67 5 -15.34 5 -15 5 C-14.67 6.98 -14.34 8.96 -14 11 C-13.38125 10.505 -12.7625 10.01 -12.125 9.5 C-10 8 -10 8 -8 8 C-8 7.34 -8 6.68 -8 6 C-7.34 6 -6.68 6 -6 6 C-6 5.34 -6 4.68 -6 4 C-5.01 4 -4.02 4 -3 4 C-3 3.01 -3 2.02 -3 1 C-2.01 0.67 -1.02 0.34 0 0 Z " fill="#CF7E2B" transform="translate(240,211)"/>
<path d="M0 0 C0.66 0.33 1.32 0.66 2 1 C0.52307692 6.66153846 0.52307692 6.66153846 -2.125 8.375 C-2.74375 8.58125 -3.3625 8.7875 -4 9 C-4 9.66 -4 10.32 -4 11 C-4.66 11 -5.32 11 -6 11 C-6 11.66 -6 12.32 -6 13 C-7.62553283 14.70680947 -9.29115995 16.37660195 -11 18 C-11.99 17.67 -12.98 17.34 -14 17 C-11.48769424 12.25453357 -9.11412154 8.57278975 -5 5 C-4.34 5 -3.68 5 -3 5 C-2.690625 4.360625 -2.38125 3.72125 -2.0625 3.0625 C-1 1 -1 1 0 0 Z " fill="#032948" transform="translate(212,237)"/>
<path d="M0 0 C6.4598338 2.31578947 6.4598338 2.31578947 8.875 5.375 C11.26137583 10.94321026 11.13663178 14.23109421 9 20 C7.14073252 22.78890121 6.16146408 22.96517442 2.8125 23.6875 C1.884375 23.790625 0.95625 23.89375 0 24 C0.78375 23.2575 1.5675 22.515 2.375 21.75 C5.92137513 18.03474987 7.17602486 15.33838487 7.625 10.25 C7.69976562 9.45078125 7.77453125 8.6515625 7.8515625 7.828125 C7.90054688 7.22484375 7.94953125 6.6215625 8 6 C7.01 6 6.02 6 5 6 C5 5.34 5 4.68 5 4 C2.03 3.505 2.03 3.505 -1 3 C-0.67 2.01 -0.34 1.02 0 0 Z " fill="#0A2740" transform="translate(137,303)"/>
<path d="M0 0 C3.27482549 1.23804378 4.63740795 2.85186646 6.875 5.53125 C10.909537 10.23595338 15.12757508 14.64258346 19.5625 18.96875 C18.9025 19.62875 18.2425 20.28875 17.5625 20.96875 C17.5625 20.30875 17.5625 19.64875 17.5625 18.96875 C16.9025 18.96875 16.2425 18.96875 15.5625 18.96875 C13.92752637 17.22714766 12.48464608 15.37065406 11 13.5 C10.525625 12.9946875 10.05125 12.489375 9.5625 11.96875 C8.9025 11.96875 8.2425 11.96875 7.5625 11.96875 C6.5560725 10.30595673 5.55664593 8.63891516 4.5625 6.96875 C3.5725 6.30875 2.5825 5.64875 1.5625 4.96875 C1.5625 4.30875 1.5625 3.64875 1.5625 2.96875 C0.73105469 3.41927734 0.73105469 3.41927734 -0.1171875 3.87890625 C-0.84164062 4.25917969 -1.56609375 4.63945312 -2.3125 5.03125 C-3.39144531 5.60552734 -3.39144531 5.60552734 -4.4921875 6.19140625 C-5.13414062 6.44792969 -5.77609375 6.70445312 -6.4375 6.96875 C-7.0975 6.63875 -7.7575 6.30875 -8.4375 5.96875 C-7.56182227 4.93057537 -6.66097209 3.91359697 -5.75 2.90625 C-5.00169922 2.05353516 -5.00169922 2.05353516 -4.23828125 1.18359375 C-2.4375 -0.03125 -2.4375 -0.03125 0 0 Z " fill="#142532" transform="translate(252.4375,206.03125)"/>
<path d="M0 0 C2.5625 -0.5 2.5625 -0.5 6 0 C8.69645368 2.38331712 10.82134626 5.14612185 13 8 C13.804375 8.99 14.60875 9.98 15.4375 11 C16.2109375 11.99 16.2109375 11.99 17 13 C16.2265625 12.566875 16.2265625 12.566875 15.4375 12.125 C12.37788119 10.71286824 9.24277338 9.90077038 6 9 C3.20294175 7.60147088 3.09085007 5.86348142 2 3 C1.34 2.01 0.68 1.02 0 0 Z " fill="#07253C" transform="translate(268,226)"/>
<path d="M0 0 C2 3 2 3 3 5 C5.32156597 5.40729228 7.6568787 5.74438677 10 6 C10 5.34 10 4.68 10 4 C9.34 3.67 8.68 3.34 8 3 C9.32 3.33 10.64 3.66 12 4 C12 4.99 12 5.98 12 7 C9.3125 8.1875 9.3125 8.1875 6 9 C3.125 7.75 3.125 7.75 1 6 C1 5.34 1 4.68 1 4 C-0.65 4 -2.3 4 -4 4 C-4 5.32 -4 6.64 -4 8 C-3.01 8.33 -2.02 8.66 -1 9 C-2.98 9.33 -4.96 9.66 -7 10 C-7 7.69 -7 5.38 -7 3 C-3.535 2.505 -3.535 2.505 0 2 C0 1.34 0 0.68 0 0 Z " fill="#061C34" transform="translate(246,324)"/>
<path d="M0 0 C0.66 0.33 1.32 0.66 2 1 C2 1.99 2 2.98 2 4 C2.66 4 3.32 4 4 4 C7.11997802 7.30350614 8 8.32409833 8 13 C6.68 13.33 5.36 13.66 4 14 C0.70800172 9.6460668 -0.66992568 6.61126336 -1 1 C-0.67 0.67 -0.34 0.34 0 0 Z " fill="#022B4A" transform="translate(223,317)"/>
<path d="M0 0 C0.33 0 0.66 0 1 0 C1.19484938 2.43711614 1.38115178 4.87437398 1.5625 7.3125 C1.61857422 8.00279297 1.67464844 8.69308594 1.73242188 9.40429688 C1.96581505 12.62512274 2.03224218 14.90327345 1 18 C1.61875 17.814375 2.2375 17.62875 2.875 17.4375 C5 17 5 17 7 18 C7 15.03 7 12.06 7 9 C7.66 9.33 8.32 9.66 9 10 C9.4140625 12.28515625 9.4140625 12.28515625 9.625 15.0625 C9.69976562 15.98160156 9.77453125 16.90070313 9.8515625 17.84765625 C9.90054688 18.55792969 9.94953125 19.26820313 10 20 C7.2780754 21.3609623 5.8168043 20.70366248 2.875 20.0625 C1.96492187 19.86785156 1.05484375 19.67320312 0.1171875 19.47265625 C-0.58148438 19.31667969 -1.28015625 19.16070312 -2 19 C-1.34 18.67 -0.68 18.34 0 18 C0 12.06 0 6.12 0 0 Z " fill="#03132A" transform="translate(210,318)"/>
<path d="M0 0 C4.62 0 9.24 0 14 0 C14 1.32 14 2.64 14 4 C9.38 4 4.76 4 0 4 C-0.33 3.34 -0.66 2.68 -1 2 C-0.67 1.34 -0.34 0.68 0 0 Z " fill="#042947" transform="translate(365,332)"/>
<path d="M0 0 C2.475 0.99 2.475 0.99 5 2 C5 2.66 5 3.32 5 4 C7.97 4.495 7.97 4.495 11 5 C11.33 6.98 11.66 8.96 12 11 C13.98 11.66 15.96 12.32 18 13 C17.01 13.99 16.02 14.98 15 16 C12.49599357 13.5248518 9.99748094 11.04423106 7.5 8.5625 C6.78457031 7.85544922 6.06914062 7.14839844 5.33203125 6.41992188 C4.65527344 5.74638672 3.97851562 5.07285156 3.28125 4.37890625 C2.65283203 3.7557251 2.02441406 3.13254395 1.37695312 2.49047852 C0 1 0 1 0 0 Z " fill="#CB7A29" transform="translate(257,207)"/>
<path d="M0 0 C0.99 0 1.98 0 3 0 C3.66 1.32 4.32 2.64 5 4 C4.01 4.66 3.02 5.32 2 6 C1.34 6.66 0.68 7.32 0 8 C0.66 9.32 1.32 10.64 2 12 C1.34 12.66 0.68 13.32 0 14 C-0.99 14 -1.98 14 -3 14 C-3.47368421 5.78947368 -3.47368421 5.78947368 -1.5 2.5 C-1.005 2.005 -0.51 1.51 0 1 C0 0.67 0 0.34 0 0 Z " fill="#032A4A" transform="translate(297,311)"/>
<path d="M0 0 C0.33 0 0.66 0 1 0 C1.02694851 1.95825873 1.04637218 3.91662226 1.0625 5.875 C1.07410156 6.96554688 1.08570313 8.05609375 1.09765625 9.1796875 C1 12 1 12 0 14 C-0.06996014 15.70702735 -0.08440154 17.41668003 -0.0625 19.125 C-0.04896484 20.49011719 -0.04896484 20.49011719 -0.03515625 21.8828125 C-0.02355469 22.58148438 -0.01195312 23.28015625 0 24 C-0.99 24 -1.98 24 -3 24 C-3.26876696 16.20575828 -2.44271605 8.66640354 -1 1 C-0.67 0.67 -0.34 0.34 0 0 Z " fill="#D9832D" transform="translate(228,191)"/>
<path d="M0 0 C0.0825 0.61875 0.165 1.2375 0.25 1.875 C0.78793918 4.13935326 0.78793918 4.13935326 2.796875 5.01953125 C3.52390625 5.34308594 4.2509375 5.66664063 5 6 C10.17190119 8.31321362 13.74687737 10.12031605 17 15 C16.01 15 15.02 15 14 15 C13.54625 14.38125 13.0925 13.7625 12.625 13.125 C10.61658663 10.49861328 9.15420279 9.9012008 6 9 C4.700625 9.061875 4.700625 9.061875 3.375 9.125 C1 9 1 9 -0.8125 7.1875 C-2 5 -2 5 -2 2 C-1.34 2 -0.68 2 0 2 C0 1.34 0 0.68 0 0 Z " fill="#072036" transform="translate(249,310)"/>
<path d="M0 0 C4.29 0.66 8.58 1.32 13 2 C13 2.33 13 2.66 13 3 C9.37 3 5.74 3 2 3 C1.34 4.32 0.68 5.64 0 7 C-1.98 7 -3.96 7 -6 7 C-6.33 5.02 -6.66 3.04 -7 1 C-6.34 1 -5.68 1 -5 1 C-5 2.32 -5 3.64 -5 5 C-4.67 4.34 -4.34 3.68 -4 3 C-3.01 2.67 -2.02 2.34 -1 2 C-0.67 1.34 -0.34 0.68 0 0 Z " fill="#061D36" transform="translate(157,310)"/>
<path d="M0 0 C6.72505081 0.16439013 10.21055351 1.21055351 15 6 C14.67 6.66 14.34 7.32 14 8 C13.01 7.67 12.02 7.34 11 7 C11 6.01 11 5.02 11 4 C10.01 4.66 9.02 5.32 8 6 C7.01 6.33 6.02 6.66 5 7 C4.01 6.34 3.02 5.68 2 5 C3.32 4.34 4.64 3.68 6 3 C3.03 2.505 3.03 2.505 0 2 C0 1.34 0 0.68 0 0 Z " fill="#D88833" transform="translate(248,175)"/>
<path d="M0 0 C0.33 0 0.66 0 1 0 C1 1.98 1 3.96 1 6 C1.84304687 5.90460938 2.68609375 5.80921875 3.5546875 5.7109375 C4.65039062 5.60007812 5.74609375 5.48921875 6.875 5.375 C8.51082031 5.20097656 8.51082031 5.20097656 10.1796875 5.0234375 C11.11039063 5.01570313 12.04109375 5.00796875 13 5 C13.66 5.66 14.32 6.32 15 7 C14.01 8.485 14.01 8.485 13 10 C13 9.34 13 8.68 13 8 C8.71 8 4.42 8 0 8 C-0.66 6.02 -1.32 4.04 -2 2 C-1.34 1.34 -0.68 0.68 0 0 Z " fill="#082037" transform="translate(158,324)"/>
<path d="M0 0 C0.99 0 1.98 0 3 0 C3 0.99 3 1.98 3 3 C4.32 3.33 5.64 3.66 7 4 C6.67 6.31 6.34 8.62 6 11 C3 10 3 10 1.83203125 7.93359375 C1.49558594 7.10988281 1.15914063 6.28617188 0.8125 5.4375 C0.46832031 4.61121094 0.12414062 3.78492188 -0.23046875 2.93359375 C-0.48441406 2.29550781 -0.73835937 1.65742188 -1 1 C-0.67 0.67 -0.34 0.34 0 0 Z " fill="#E9851D" transform="translate(256,179)"/>
<path d="M0 0 C2.97 0 5.94 0 9 0 C9.33 4.95 9.66 9.9 10 15 C9.34 15 8.68 15 8 15 C6.71553081 12.43106162 6.67022856 10.23423663 6.4375 7.375 C6.35371094 6.37210937 6.26992187 5.36921875 6.18359375 4.3359375 C6.12300781 3.56507813 6.06242188 2.79421875 6 2 C3.03 1.505 3.03 1.505 0 1 C0 0.67 0 0.34 0 0 Z " fill="#061D36" transform="translate(210,304)"/>
<path d="M0 0 C-1.21252868 3.63758605 -2.60772531 4.12831024 -5.91796875 5.80078125 C-6.56378906 6.11402344 -7.20960938 6.42726563 -7.875 6.75 C-8.51308594 7.07871094 -9.15117187 7.40742188 -9.80859375 7.74609375 C-14.61997768 10.12667411 -14.61997768 10.12667411 -18 9 C-15.56721456 7.49185257 -13.12933973 5.99335653 -10.6875 4.5 C-9.99720703 4.07074219 -9.30691406 3.64148438 -8.59570312 3.19921875 C-7.92861328 2.79316406 -7.26152344 2.38710938 -6.57421875 1.96875 C-5.96151123 1.59169922 -5.34880371 1.21464844 -4.7175293 0.82617188 C-3 0 -3 0 0 0 Z " fill="#0A243A" transform="translate(212,260)"/>
<path d="M0 0 C0.66 0.66 1.32 1.32 2 2 C1.625 4.125 1.625 4.125 1 6 C-1.64 6 -4.28 6 -7 6 C-7.33 5.01 -7.66 4.02 -8 3 C-8.99 2.34 -9.98 1.68 -11 1 C-7.05272412 0.82057837 -4.4019487 0.90649311 -1 3 C-0.67 2.01 -0.34 1.02 0 0 Z " fill="#092238" transform="translate(263,309)"/>
<path d="M0 0 C1.485 0.99 1.485 0.99 3 2 C3 2.99 3 3.98 3 5 C4.65 5 6.3 5 8 5 C7.67 3.35 7.34 1.7 7 0 C7.66 0 8.32 0 9 0 C9.33 2.64 9.66 5.28 10 8 C4.62694301 7.8238342 4.62694301 7.8238342 2 7 C0 3.9375 0 3.9375 -1 1 C-0.67 0.67 -0.34 0.34 0 0 Z " fill="#0A2134" transform="translate(197,331)"/>
<path d="M0 0 C0.33 0 0.66 0 1 0 C1.33 1.98 1.66 3.96 2 6 C2.99 6 3.98 6 5 6 C4.40312566 9.34249629 3.26396123 11.46436342 1 14 C0.34 14 -0.32 14 -1 14 C-1.08333357 9.1666528 -0.95261487 4.76307437 0 0 Z " fill="#C67D36" transform="translate(224,216)"/>
<path d="M0 0 C0.33 0.66 0.66 1.32 1 2 C3.64 2 6.28 2 9 2 C7.58480285 4.0343459 6.45017877 4.90410393 4.01953125 5.421875 C2.01823046 5.66273952 0.0090056 5.83532741 -2 6 C-2 4.35 -2 2.7 -2 1 C-1.34 0.67 -0.68 0.34 0 0 Z " fill="#E98619" transform="translate(247,175)"/>
<path d="M0 0 C2.12300942 3.53834904 2.69690596 6.90823045 3 11 C2.34 11.66 1.68 12.32 1 13 C-0.7074998 11.71937515 -2.37373596 10.38232443 -4 9 C-4 8.34 -4 7.68 -4 7 C-2.68 7 -1.36 7 0 7 C0 4.69 0 2.38 0 0 Z " fill="#C66A26" transform="translate(277,216)"/>
<path d="M0 0 C3.78155989 1.26051996 4.25618367 2.56446606 6.25 5.9375 C6.79140625 6.83339844 7.3328125 7.72929687 7.890625 8.65234375 C8.25671875 9.42707031 8.6228125 10.20179688 9 11 C8.67 11.66 8.34 12.32 8 13 C6.125 12.5 6.125 12.5 4 11 C3.29673146 8.93736484 2.87228444 6.92217651 2.4921875 4.77734375 C2.32976562 4.19082031 2.16734375 3.60429687 2 3 C1.34 2.67 0.68 2.34 0 2 C0 1.34 0 0.68 0 0 Z " fill="#05223A" transform="translate(273,251)"/>
<path d="M0 0 C0 0.66 0 1.32 0 2 C-1.57421875 3.55078125 -1.57421875 3.55078125 -3.6875 5.3125 C-6.95300964 8.08499308 -10.01915985 10.92600859 -13 14 C-12.62403791 11.21788056 -12.32681541 9.4120716 -10.5625 7.1875 C-9 6 -9 6 -7 6 C-7 5.34 -7 4.68 -7 4 C-6.34 4 -5.68 4 -5 4 C-5 3.34 -5 2.68 -5 2 C-2 0 -2 0 0 0 Z " fill="#0A2133" transform="translate(213,244)"/>
<path d="M0 0 C0.391875 0.556875 0.78375 1.11375 1.1875 1.6875 C3.28075005 4.35819834 5.50693412 6.69870842 8 9 C8.66 9 9.32 9 10 9 C10.33 10.65 10.66 12.3 11 14 C10.01 14.495 10.01 14.495 9 15 C7.488177 13.26020369 5.99088502 11.50777184 4.5 9.75 C3.6646875 8.77546875 2.829375 7.8009375 1.96875 6.796875 C0 4 0 4 0 0 Z " fill="#07243A" transform="translate(277,249)"/>
<path d="M0 0 C6.4598338 2.31578947 6.4598338 2.31578947 8.875 5.375 C9.97370965 7.93865585 10.6063157 10.24420991 11 13 C10.01 12.34 9.02 11.68 8 11 C7.8125 8.375 7.8125 8.375 8 6 C7.01 6 6.02 6 5 6 C5 5.34 5 4.68 5 4 C2.03 3.505 2.03 3.505 -1 3 C-0.67 2.01 -0.34 1.02 0 0 Z " fill="#092134" transform="translate(137,303)"/>
<path d="M0 0 C0.66 0 1.32 0 2 0 C2 1.65 2 3.3 2 5 C0.02253397 5.73080266 -1.98072489 6.39421747 -4 7 C-6 6 -6 6 -7 4 C-5.6875 2.5 -5.6875 2.5 -4 1 C-3.01 1 -2.02 1 -1 1 C-0.67 0.67 -0.34 0.34 0 0 Z " fill="#06233D" transform="translate(226,265)"/>
<path d="M0 0 C-1 1 -1 1 -2.76586914 1.11352539 C-3.51473389 1.10828857 -4.26359863 1.10305176 -5.03515625 1.09765625 C-5.84404297 1.09443359 -6.65292969 1.09121094 -7.48632812 1.08789062 C-8.33646484 1.07951172 -9.18660156 1.07113281 -10.0625 1.0625 C-10.91650391 1.05798828 -11.77050781 1.05347656 -12.65039062 1.04882812 C-14.76695663 1.03700373 -16.88348685 1.01906769 -19 1 C-18.67 0.34 -18.34 -0.32 -18 -1 C-15.50682319 -1.36891876 -13.13229712 -1.60552749 -10.625 -1.75 C-9.93921875 -1.80542969 -9.2534375 -1.86085938 -8.546875 -1.91796875 C-4.73223879 -2.1628773 -3.27035537 -2.18023691 0 0 Z " fill="#092339" transform="translate(346,305)"/>
<path d="M0 0 C-2.4428997 4.76365442 -2.4428997 4.76365442 -5.0625 5.875 C-7 6 -7 6 -9 5 C-8 2 -8 2 -5.625 0.25 C-3 -1 -3 -1 0 0 Z " fill="#06223D" transform="translate(194,271)"/>
<path d="M0 0 C5.18659613 0.41342433 7.35978999 1.7809862 10.875 5.5625 C11.65617187 6.38878906 12.43734375 7.21507812 13.2421875 8.06640625 C13.82226562 8.70449219 14.40234375 9.34257812 15 10 C10.68381834 10 9.07210341 7.86729652 6 5 C6 4.34 6 3.68 6 3 C3.03 2.505 3.03 2.505 0 2 C0 1.34 0 0.68 0 0 Z " fill="#0B2134" transform="translate(289,242)"/>
<path d="M0 0 C0.66 0 1.32 0 2 0 C2.02698189 1.62490954 2.04638757 3.24994633 2.0625 4.875 C2.07410156 5.77992188 2.08570313 6.68484375 2.09765625 7.6171875 C2 10 2 10 1 12 C-1.0625 12.625 -1.0625 12.625 -3 13 C-3 12.34 -3 11.68 -3 11 C-2.34 11 -1.68 11 -1 11 C-1.01160156 10.28972656 -1.02320313 9.57945312 -1.03515625 8.84765625 C-1.04417969 7.92855469 -1.05320312 7.00945312 -1.0625 6.0625 C-1.07410156 5.14597656 -1.08570313 4.22945313 -1.09765625 3.28515625 C-1 1 -1 1 0 0 Z " fill="#001428" transform="translate(357,325)"/>
<path d="M0 0 C2.475 0.495 2.475 0.495 5 1 C4.34 2.98 3.68 4.96 3 7 C2.01 7 1.02 7 0 7 C0 4.69 0 2.38 0 0 Z " fill="#042A48" transform="translate(226,307)"/>
<path d="M0 0 C1.5 1.375 1.5 1.375 3 3 C3 3.66 3 4.32 3 5 C4.32 5 5.64 5 7 5 C7.33 5.99 7.66 6.98 8 8 C4.12697862 6.85569823 0.99736561 5.76679902 -2 3 C-2 2.34 -2 1.68 -2 1 C-1.34 0.67 -0.68 0.34 0 0 Z " fill="#0A2137" transform="translate(297,330)"/>
<path d="M0 0 C0.66 0 1.32 0 2 0 C0.375 5.75 0.375 5.75 -3 8 C-5.1875 7.625 -5.1875 7.625 -7 7 C-5.75 5 -5.75 5 -4 3 C-2.68 3 -1.36 3 0 3 C0 2.01 0 1.02 0 0 Z " fill="#051C2F" transform="translate(320,329)"/>
<path d="M0 0 C0.66 0.33 1.32 0.66 2 1 C-0.88406243 4.40843742 -2.3708265 5.86591384 -6.8125 6.8125 C-8.3903125 6.9053125 -8.3903125 6.9053125 -10 7 C-6.76478258 4.51137122 -3.40739705 2.24578442 0 0 Z " fill="#081E34" transform="translate(238,258)"/>
<path d="M0 0 C0.66 0 1.32 0 2 0 C2 0.99 2 1.98 2 3 C2.763125 2.896875 3.52625 2.79375 4.3125 2.6875 C5.199375 2.790625 6.08625 2.89375 7 3 C8.8125 5.5 8.8125 5.5 10 8 C9.01 8.495 9.01 8.495 8 9 C7.62875 8.38125 7.2575 7.7625 6.875 7.125 C4.51377094 4.4489404 2.39868348 3.9063156 -1 3 C-0.67 2.01 -0.34 1.02 0 0 Z " fill="#0C2235" transform="translate(245,239)"/>
<path d="M0 0 C0.66 0.33 1.32 0.66 2 1 C0.68 4.3 -0.64 7.6 -2 11 C-2.66 11 -3.32 11 -4 11 C-3.38461538 3.49230769 -3.38461538 3.49230769 -1.4375 1 C-0.963125 0.67 -0.48875 0.34 0 0 Z " fill="#0B2237" transform="translate(250,226)"/>
<path d="M0 0 C0.66 0 1.32 0 2 0 C2 0.66 2 1.32 2 2 C2.66 2 3.32 2 4 2 C4 2.99 4 3.98 4 5 C1.03 5 -1.94 5 -5 5 C-3.74458443 2.48916886 -2.49936512 2.12874554 0 1 C0 0.67 0 0.34 0 0 Z " fill="#0B2236" transform="translate(350,333)"/>
<path d="M0 0 C-0.33 0.99 -0.66 1.98 -1 3 C-2.4800841 2.88637738 -3.95910074 2.75877092 -5.4375 2.625 C-6.26121094 2.55539062 -7.08492187 2.48578125 -7.93359375 2.4140625 C-8.61550781 2.27742188 -9.29742187 2.14078125 -10 2 C-10.33 1.34 -10.66 0.68 -11 0 C-3.375 -1.125 -3.375 -1.125 0 0 Z " fill="#081C2F" transform="translate(240,336)"/>
<path d="M0 0 C-0.33 2.31 -0.66 4.62 -1 7 C-1.99 7 -2.98 7 -4 7 C-4.66 5.68 -5.32 4.36 -6 3 C-3.375 0 -3.375 0 0 0 Z " fill="#011C34" transform="translate(302,315)"/>
<path d="M0 0 C0.99 0.33 1.98 0.66 3 1 C3 1.66 3 2.32 3 3 C-2.2734375 6.22265625 -2.2734375 6.22265625 -4 7 C-4.66 6.67 -5.32 6.34 -6 6 C-4.02 4.02 -2.04 2.04 0 0 Z " fill="#1A2F3C" transform="translate(250,206)"/>
<path d="M0 0 C0.33 1.32 0.66 2.64 1 4 C0.236875 4.598125 -0.52625 5.19625 -1.3125 5.8125 C-3.3483575 7.46959332 -5.1978279 9.10297674 -7 11 C-6.40716379 7.60807637 -5.23256811 5.7892243 -2.9375 3.25 C-2.38964844 2.63640625 -1.84179688 2.0228125 -1.27734375 1.390625 C-0.85582031 0.93171875 -0.43429688 0.4728125 0 0 Z " fill="#082031" transform="translate(195,252)"/>
<path d="M0 0 C0.66 0.33 1.32 0.66 2 1 C1.34 3.31 0.68 5.62 0 8 C-0.99 7.67 -1.98 7.34 -3 7 C-2.67 6.01 -2.34 5.02 -2 4 C-2.66 3.67 -3.32 3.34 -4 3 C-2.68 2.01 -1.36 1.02 0 0 Z " fill="#102130" transform="translate(232,245)"/>
<path d="M0 0 C-0.99 1.485 -0.99 1.485 -2 3 C-2 2.34 -2 1.68 -2 1 C-5.3 1 -8.6 1 -12 1 C-12 0.67 -12 0.34 -12 0 C-10.56666979 -0.39063507 -9.12807321 -0.76198474 -7.6875 -1.125 C-6.88699219 -1.33382813 -6.08648437 -1.54265625 -5.26171875 -1.7578125 C-3 -2 -3 -2 0 0 Z " fill="#031634" transform="translate(173,331)"/>
<path d="M0 0 C0.66 0 1.32 0 2 0 C2.66 1.98 3.32 3.96 4 6 C2.68 6.33 1.36 6.66 0 7 C-0.66 5.35 -1.32 3.7 -2 2 C-1.34 1.34 -0.68 0.68 0 0 Z " fill="#05213A" transform="translate(223,258)"/>
<path d="M0 0 C-4.75 4 -4.75 4 -7 4 C-7.33 4.66 -7.66 5.32 -8 6 C-7.67 4.02 -7.34 2.04 -7 0 C-3.86650268 -1.04449911 -3.01031744 -0.93423645 0 0 Z " fill="#CE7821" transform="translate(253,203)"/>
<path d="M0 0 C0.99 0.33 1.98 0.66 3 1 C3.33 2.98 3.66 4.96 4 7 C2.68 6.67 1.36 6.34 0 6 C0 4.02 0 2.04 0 0 Z " fill="#03172F" transform="translate(265,304)"/>
<path d="M0 0 C1.64826111 2.96687001 2.44271087 5.65626525 3 9 C2.01 9.33 1.02 9.66 0 10 C-0.66 9.34 -1.32 8.68 -2 8 C-1.34 8 -0.68 8 0 8 C0 5.36 0 2.72 0 0 Z " fill="#031D36" transform="translate(334,328)"/>
<path d="M0 0 C0.99 0 1.98 0 3 0 C3.33 0.99 3.66 1.98 4 3 C1.525 4.485 1.525 4.485 -1 6 C-1 3 -1 3 0 0 Z " fill="#082036" transform="translate(314,325)"/>
<path d="M0 0 C0.33 0 0.66 0 1 0 C1 2.31 1 4.62 1 7 C2.32 7.66 3.64 8.32 5 9 C3.02 9 1.04 9 -1 9 C-1.33 8.34 -1.66 7.68 -2 7 C-1.34 7 -0.68 7 0 7 C0 4.69 0 2.38 0 0 Z " fill="#0A243B" transform="translate(329,329)"/>
<path d="M0 0 C1.04449911 3.13349732 0.93423645 3.98968256 0 7 C-1.32 6.01 -2.64 5.02 -4 4 C-2.68 2.68 -1.36 1.36 0 0 Z " fill="#082942" transform="translate(229,249)"/>
<path d="M0 0 C0.66 0 1.32 0 2 0 C1.67 2.64 1.34 5.28 1 8 C0.34 7.67 -0.32 7.34 -1 7 C-0.67 4.69 -0.34 2.38 0 0 Z " fill="#F08213" transform="translate(240,181)"/>
<path d="M0 0 C0.99 0.33 1.98 0.66 3 1 C2.34 2.65 1.68 4.3 1 6 C-0.32 5.34 -1.64 4.68 -3 4 C-2.34 4 -1.68 4 -1 4 C-0.67 2.68 -0.34 1.36 0 0 Z " fill="#071F2E" transform="translate(224,308)"/>
<path d="M0 0 C1.65 0 3.3 0 5 0 C4.67 1.32 4.34 2.64 4 4 C1.525 3.01 1.525 3.01 -1 2 C-0.67 1.34 -0.34 0.68 0 0 Z " fill="#032949" transform="translate(258,308)"/>
<path d="M0 0 C0.33 0.99 0.66 1.98 1 3 C-0.32 4.32 -1.64 5.64 -3 7 C-3.66 6.34 -4.32 5.68 -5 5 C-3.35 3.35 -1.7 1.7 0 0 Z " fill="#0A243C" transform="translate(168,280)"/>
<path d="M0 0 C3.3 0 6.6 0 10 0 C10 0.33 10 0.66 10 1 C6.7 1 3.4 1 0 1 C0 0.67 0 0.34 0 0 Z " fill="#000000" transform="translate(161,325)"/>
<path d="M0 0 C1.65 0 3.3 0 5 0 C5 0.33 5 0.66 5 1 C3.35 1 1.7 1 0 1 C0 0.67 0 0.34 0 0 Z " fill="#000000" transform="translate(372,325)"/>
<path d="M0 0 C0.33 0 0.66 0 1 0 C1 1.65 1 3.3 1 5 C0.67 5 0.34 5 0 5 C0 3.35 0 1.7 0 0 Z " fill="#000000" transform="translate(292,306)"/>
<path d="" fill="#000000" transform="translate(0,0)"/>
<path d="M0 0 C0.99 0.495 0.99 0.495 2 1 C1.01 1.495 1.01 1.495 0 2 C0 1.34 0 0.68 0 0 Z " fill="#000000" transform="translate(195,265)"/>
<path d="M0 0 C2 1 2 1 2 1 Z " fill="#000000" transform="translate(251,312)"/>
<path d="M0 0 C2 1 2 1 2 1 Z " fill="#000000" transform="translate(217,235)"/>
<path d="" fill="#FFFFFF" transform="translate(0,0)"/>
<path d="" fill="#FFFFFF" transform="translate(0,0)"/>
<path d="" fill="#FFFFFF" transform="translate(0,0)"/>
<path d="" fill="#FFFFFF" transform="translate(0,0)"/>
<path d="" fill="#FFFFFF" transform="translate(0,0)"/>
<path d="" fill="#FFFFFF" transform="translate(0,0)"/>
<path d="" fill="#FFFFFF" transform="translate(0,0)"/>
<path d="" fill="#FFFFFF" transform="translate(0,0)"/>
<path d="" fill="#FFFFFF" transform="translate(0,0)"/>
<path d="" fill="#FFFFFF" transform="translate(0,0)"/>
<path d="" fill="#FFFFFF" transform="translate(0,0)"/>
<path d="" fill="#FFFFFF" transform="translate(0,0)"/>
<path d="" fill="#FFFFFF" transform="translate(0,0)"/>
<path d="" fill="#FFFFFF" transform="translate(0,0)"/>
<path d="" fill="#FFFFFF" transform="translate(0,0)"/>
<path d="" fill="#FFFFFF" transform="translate(0,0)"/>
<path d="" fill="#FFFFFF" transform="translate(0,0)"/>
<path d="" fill="#FFFFFF" transform="translate(0,0)"/>
<path d="" fill="#FFFFFF" transform="translate(0,0)"/>
<path d="" fill="#FFFFFF" transform="translate(0,0)"/>
<path d="" fill="#FFFFFF" transform="translate(0,0)"/>
<path d="" fill="#FFFFFF" transform="translate(0,0)"/>
<path d="" fill="#FFFFFF" transform="translate(0,0)"/>
<path d="" fill="#FFFFFF" transform="translate(0,0)"/>
<path d="" fill="#FFFFFF" transform="translate(0,0)"/>
<path d="" fill="#FFFFFF" transform="translate(0,0)"/>
<path d="" fill="#FFFFFF" transform="translate(0,0)"/>
<path d="" fill="#FFFFFF" transform="translate(0,0)"/>
<path d="" fill="#FFFFFF" transform="translate(0,0)"/>
<path d="" fill="#FFFFFF" transform="translate(0,0)"/>
<path d="" fill="#FFFFFF" transform="translate(0,0)"/>
<path d="" fill="#FFFFFF" transform="translate(0,0)"/>
<path d="" fill="#FFFFFF" transform="translate(0,0)"/>
<path d="" fill="#FFFFFF" transform="translate(0,0)"/>
<path d="" fill="#FFFFFF" transform="translate(0,0)"/>
<path d="" fill="#FFFFFF" transform="translate(0,0)"/>
<path d="" fill="#FFFFFF" transform="translate(0,0)"/>
<path d="" fill="#FFFFFF" transform="translate(0,0)"/>
<path d="" fill="#FFFFFF" transform="translate(0,0)"/>
<path d="" fill="#FFFFFF" transform="translate(0,0)"/>
<path d="" fill="#000000" transform="translate(0,0)"/>
<path d="" fill="#FFFFFF" transform="translate(0,0)"/>
<path d="" fill="#000000" transform="translate(0,0)"/>
<path d="" fill="#FFFFFF" transform="translate(0,0)"/>
<path d="" fill="#000000" transform="translate(0,0)"/>
<path d="" fill="#000000" transform="translate(0,0)"/>
<path d="" fill="#000000" transform="translate(0,0)"/>
<path d="" fill="#000000" transform="translate(0,0)"/>
<path d="" fill="#000000" transform="translate(0,0)"/>
<path d="" fill="#000000" transform="translate(0,0)"/>
<path d="" fill="#000000" transform="translate(0,0)"/>
<path d="" fill="#000000" transform="translate(0,0)"/>
<path d="" fill="#FFFFFF" transform="translate(0,0)"/>
<path d="" fill="#000000" transform="translate(0,0)"/>
<path d="" fill="#000000" transform="translate(0,0)"/>
<path d="" fill="#008000" transform="translate(0,0)"/>
<path d="" fill="#000000" transform="translate(0,0)"/>
<path d="" fill="#000000" transform="translate(0,0)"/>
<path d="" fill="#FFFFFF" transform="translate(0,0)"/>
<path d="" fill="#FFFFFF" transform="translate(0,0)"/>
<path d="" fill="#FFFFFF" transform="translate(0,0)"/>
<path d="" fill="#FFFFFF" transform="translate(0,0)"/>
<path d="" fill="#FFFFFF" transform="translate(0,0)"/>
<path d="" fill="#FFFFFF" transform="translate(0,0)"/>
<path d="" fill="#FFFFFF" transform="translate(0,0)"/>
<path d="" fill="#000000" transform="translate(0,0)"/>
<path d="" fill="#FFFFFF" transform="translate(0,0)"/>
<path d="" fill="#FFFFFF" transform="translate(0,0)"/>
<path d="" fill="#FFFFFF" transform="translate(0,0)"/>
<path d="" fill="#FFFFFF" transform="translate(0,0)"/>
<path d="" fill="#FFFFFF" transform="translate(0,0)"/>
<path d="" fill="#FFFFFF" transform="translate(0,0)"/>
<path d="" fill="#FFFFFF" transform="translate(0,0)"/>
<path d="" fill="#FFFFFF" transform="translate(0,0)"/>
<path d="" fill="#FFFFFF" transform="translate(0,0)"/>
<path d="" fill="#FFFFFF" transform="translate(0,0)"/>
<path d="" fill="#FFFFFF" transform="translate(0,0)"/>
<path d="" fill="#FFFFFF" transform="translate(0,0)"/>
<path d="" fill="#FFFFFF" transform="translate(0,0)"/>
<path d="" fill="#FFFFFF" transform="translate(0,0)"/>
<path d="" fill="#FFFFFF" transform="translate(0,0)"/>
<path d="" fill="#FFFFFF" transform="translate(0,0)"/>
<path d="" fill="#FFFFFF" transform="translate(0,0)"/>
<path d="" fill="#FFFFFF" transform="translate(0,0)"/>
<path d="" fill="#FFFFFF" transform="translate(0,0)"/>
<path d="" fill="#FFFFFF" transform="translate(0,0)"/>
<path d="" fill="#FFFFFF" transform="translate(0,0)"/>
<path d="" fill="#FFFFFF" transform="translate(0,0)"/>
<path d="" fill="#FFFFFF" transform="translate(0,0)"/>
<path d="" fill="#FFFFFF" transform="translate(0,0)"/>
<path d="" fill="#FFFFFF" transform="translate(0,0)"/>
<path d="" fill="#FFFFFF" transform="translate(0,0)"/>
<path d="" fill="#FFFFFF" transform="translate(0,0)"/>
<path d="" fill="#FFFFFF" transform="translate(0,0)"/>
<path d="" fill="#FFFFFF" transform="translate(0,0)"/>
<path d="" fill="#FFFFFF" transform="translate(0,0)"/>
<path d="" fill="#FFFFFF" transform="translate(0,0)"/>
<path d="" fill="#FFFFFF" transform="translate(0,0)"/>
<path d="" fill="#FFFFFF" transform="translate(0,0)"/>
<path d="" fill="#FFFFFF" transform="translate(0,0)"/>
<path d="" fill="#FFFFFF" transform="translate(0,0)"/>
<path d="" fill="#FFFFFF" transform="translate(0,0)"/>
<path d="" fill="#FFFFFF" transform="translate(0,0)"/>
<path d="" fill="#FFFFFF" transform="translate(0,0)"/>
<path d="" fill="#FFFFFF" transform="translate(0,0)"/>
<path d="" fill="#FFFFFF" transform="translate(0,0)"/>
</svg>
